# xmcd
#
# Track frame offsets: 
#        182
#        12107
#        24777
#        37172
#        48887
#        60642
#        72937
#        85780
#        98377
#        111470
#        123577
#        136850
#        150230
#        161995
#        175247
#        188547
#        201205
#        214372
#        227075
#        236520
#        248102
#        260080
#        271055
#        283002
#
# Disc length: 3925 seconds
#
# Revision: 8
# Processed by: cddbd v1.5.2PL0 Copyright (c) Steve Scherf et al.
# Submitted via: ExactAudioCopyFreeDBPlugin 1.0
#
DISCID=480f5318
DTITLE=Hank Williams - The Complete Hank Williams [CD 02)
DYEAR=1998
DGENRE=Country
TTITLE0=I'll Be a Bachelor 'til I Die
TTITLE1=There'll Be No Teardrops Tonight
TTITLE2=Lovesick Blues
TTITLE3=Hank Williams w- Audrey Williams - Lost on the River
TTITLE4=Hank Williams w- Audrey Williams - I Heard My Mother Praying f
TTITLE4=or Me
TTITLE5=Lost Highway
TTITLE6=May You Never Be Alone Like Me
TTITLE7=Hank Williams w- Audrey Williams - Dear Brother
TTITLE8=Hank Williams w- Audrey Williams - Jesus Remembered Me
TTITLE9=Honky Tonk Blues (1949 v.)
TTITLE10=Mind Your Own Business
TTITLE11=You're Gonna Change (Or I'm Gonna Leave)
TTITLE12=My Son Calls Another Man Daddy
TTITLE13=Wedding Bells
TTITLE14=I've Just Told Mama Goodbye
TTITLE15=I'm So Lonesome I Could Cry
TTITLE16=A House without Love
TTITLE17=I Just Don't Like This Kind of Livin
TTITLE18=My Bucket's Got a Hole in It (Alt. Take)
TTITLE19=My Bucket's Got a Hole in It
TTITLE20=Long Gone Lonesome Blues
TTITLE21=Why Don't You Love Me (Like You Used to Do)
TTITLE22=Why Should We Try Anymore
TTITLE23=My Son Calls Another Man Daddy
EXTD=YEAR: 1998 ID3G:   2
EXTT0=
EXTT1=
EXTT2=
EXTT3=
EXTT4=
EXTT5=
EXTT6=
EXTT7=
EXTT8=
EXTT9=
EXTT10=
EXTT11=
EXTT12=
EXTT13=
EXTT14=
EXTT15=
EXTT16=
EXTT17=
EXTT18=
EXTT19=
EXTT20=
EXTT21=
EXTT22=
EXTT23=
PLAYORDER=
